
<global>
ampeg_attack=0.002
ampeg_release=0.3
</global>

<group>
group_label=PP

<region>
end=172841
hikey=D#2
hivel=63
lokey=C2
lovel=0
offset=18347
pitch_keycenter=D2
sample=Fender_Stratocaster_Scoop_PP_D3.opus
volume=+10.67
</region>

<region>
end=176470
hikey=F2
hivel=63
lokey=E2
lovel=0
offset=19773
pitch_keycenter=E2
sample=Fender_Stratocaster_Scoop_PP_E3.opus
volume=+9.99
</region>

<region>
end=175038
hikey=G2
hivel=63
lokey=F#2
lovel=0
offset=18369
pitch_keycenter=F#2
sample=Fender_Stratocaster_Scoop_PP_F#3.opus
volume=+7.98
</region>

<region>
end=180066
hikey=A2
hivel=63
lokey=G#2
lovel=0
offset=17179
pitch_keycenter=G#2
sample=Fender_Stratocaster_Scoop_PP_G#3.opus
volume=+5.44
</region>

<region>
end=172221
hikey=B2
hivel=63
lokey=A#2
lovel=0
offset=17773
pitch_keycenter=A#2
sample=Fender_Stratocaster_Scoop_PP_A#3.opus
volume=+11.76
</region>

<region>
end=174655
hikey=C#3
hivel=63
lokey=C3
lovel=0
offset=17755
pitch_keycenter=C3
sample=Fender_Stratocaster_Scoop_PP_C4.opus
volume=+10.02
</region>

<region>
hikey=D#3
hivel=63
lokey=D3
lovel=0
offset=16719
pitch_keycenter=D3
sample=Fender_Stratocaster_Scoop_PP_D4.opus
volume=+11.63
</region>

<region>
hikey=F3
hivel=63
lokey=E3
lovel=0
offset=19588
pitch_keycenter=E3
sample=Fender_Stratocaster_Scoop_PP_E4.opus
volume=+11.90
</region>

<region>
hikey=G3
hivel=63
lokey=F#3
lovel=0
offset=17918
pitch_keycenter=F#3
sample=Fender_Stratocaster_Scoop_PP_F#4.opus
volume=+8.89
</region>

<region>
hikey=A3
hivel=63
lokey=G#3
lovel=0
offset=18053
pitch_keycenter=G#3
sample=Fender_Stratocaster_Scoop_PP_G#4.opus
volume=+13.13
</region>

<region>
hikey=B3
hivel=63
lokey=A#3
lovel=0
offset=17881
pitch_keycenter=A#3
sample=Fender_Stratocaster_Scoop_PP_A#4.opus
volume=+13.96
</region>

<region>
hikey=C#4
hivel=63
lokey=C4
lovel=0
offset=19885
sample=Fender_Stratocaster_Scoop_PP_C5.opus
volume=+12.06
</region>

<region>
hikey=D#4
hivel=63
lokey=D4
lovel=0
offset=19456
pitch_keycenter=D4
sample=Fender_Stratocaster_Scoop_PP_D5.opus
volume=+10.01
</region>

<region>
hikey=F4
hivel=63
lokey=E4
lovel=0
offset=19878
pitch_keycenter=E4
sample=Fender_Stratocaster_Scoop_PP_E5.opus
volume=+9.09
</region>

<region>
hikey=G4
hivel=63
lokey=F#4
lovel=0
offset=18350
pitch_keycenter=F#4
sample=Fender_Stratocaster_Scoop_PP_F#5.opus
volume=+9.30
</region>

<region>
hikey=A4
hivel=63
lokey=G#4
lovel=0
offset=19603
pitch_keycenter=G#4
sample=Fender_Stratocaster_Scoop_PP_G#5.opus
volume=+11.37
</region>

<region>
end=163477
hikey=B4
hivel=63
lokey=A#4
lovel=0
offset=17685
pitch_keycenter=A#4
sample=Fender_Stratocaster_Scoop_PP_A#5.opus
volume=+11.02
</region>

<region>
hikey=C#5
hivel=63
lokey=C5
lovel=0
offset=19348
pitch_keycenter=C5
sample=Fender_Stratocaster_Scoop_PP_C6.opus
volume=+11.61
</region>

<region>
hikey=D#5
hivel=63
lokey=D5
lovel=0
offset=17740
pitch_keycenter=D5
sample=Fender_Stratocaster_Scoop_PP_D6.opus
volume=+13.33
</region>

<region>
hikey=F5
hivel=63
lokey=E5
lovel=0
offset=18813
pitch_keycenter=E5
sample=Fender_Stratocaster_Scoop_PP_E6.opus
volume=+15.64
</region>

<region>
hikey=G5
hivel=63
lokey=F#5
lovel=0
offset=18628
pitch_keycenter=F#5
sample=Fender_Stratocaster_Scoop_PP_F#6.opus
volume=+14.79
</region>

<region>
end=163194
hikey=A5
hivel=63
lokey=G#5
lovel=0
offset=19675
pitch_keycenter=G#5
sample=Fender_Stratocaster_Scoop_PP_G#6.opus
tune=+200 c
volume=+13.28
</region>

<region>
hikey=B5
hivel=63
lokey=A#5
lovel=0
offset=17863
pitch_keycenter=A#5
sample=Fender_Stratocaster_Scoop_PP_A#6.opus
tune=+200 c
volume=+14.16
</region>

<region>
hikey=C#6
hivel=63
lokey=C6
lovel=0
offset=16934
pitch_keycenter=C6
sample=Fender_Stratocaster_Scoop_PP_C7.opus
tune=+200 c
volume=+16.09
</region>
</group>

<group>
group_label=FF

<region>
end=176149
hikey=D#2
hivel=127
lokey=C2
lovel=64
offset=19590
pitch_keycenter=D2
sample=Fender_Stratocaster_Scoop_FF_D3.opus
volume=+5.25
</region>

<region>
hikey=F2
hivel=127
lokey=E2
lovel=64
offset=18973
pitch_keycenter=E2
sample=Fender_Stratocaster_Scoop_FF_E3.opus
volume=+6.12
</region>

<region>
end=172562
hikey=G2
hivel=127
lokey=F#2
lovel=64
offset=18418
pitch_keycenter=F#2
sample=Fender_Stratocaster_Scoop_FF_F#3.opus
volume=+6.69
</region>

<region>
end=180361
hikey=A2
hivel=127
lokey=G#2
lovel=64
offset=16139
pitch_keycenter=G#2
sample=Fender_Stratocaster_Scoop_FF_G#3.opus
volume=+7.27
</region>

<region>
hikey=B2
hivel=127
lokey=A#2
lovel=64
offset=15914
pitch_keycenter=A#2
sample=Fender_Stratocaster_Scoop_FF_A#3.opus
volume=+8.46
</region>

<region>
hikey=C#3
hivel=127
lokey=C3
lovel=64
offset=17367
pitch_keycenter=C3
sample=Fender_Stratocaster_Scoop_FF_C4.opus
volume=+5.24
</region>

<region>
end=172153
hikey=D#3
hivel=127
lokey=D3
lovel=64
offset=15038
pitch_keycenter=D3
sample=Fender_Stratocaster_Scoop_FF_D4.opus
volume=+2.44
</region>

<region>
end=164379
hikey=F3
hivel=127
lokey=E3
lovel=64
offset=17223
pitch_keycenter=E3
sample=Fender_Stratocaster_Scoop_FF_E4.opus
volume=+5.95
</region>

<region>
hikey=G3
hivel=127
lokey=F#3
lovel=64
offset=19293
pitch_keycenter=F#3
sample=Fender_Stratocaster_Scoop_FF_F#4.opus
volume=+6.19
</region>

<region>
hikey=A3
hivel=127
lokey=G#3
lovel=64
offset=16564
pitch_keycenter=G#3
sample=Fender_Stratocaster_Scoop_FF_G#4.opus
volume=+8.41
</region>

<region>
hikey=B3
hivel=127
lokey=A#3
lovel=64
offset=17921
pitch_keycenter=A#3
sample=Fender_Stratocaster_Scoop_FF_A#4.opus
volume=+10.70
</region>

<region>
hikey=C#4
hivel=127
lokey=C4
lovel=64
offset=17989
sample=Fender_Stratocaster_Scoop_FF_C5.opus
volume=+11.06
</region>

<region>
hikey=D#4
hivel=127
lokey=D4
lovel=64
offset=18174
pitch_keycenter=D4
sample=Fender_Stratocaster_Scoop_FF_D5.opus
volume=+9.05
</region>

<region>
hikey=F4
hivel=127
lokey=E4
lovel=64
offset=19004
pitch_keycenter=E4
sample=Fender_Stratocaster_Scoop_FF_E5.opus
volume=+8.95
</region>

<region>
hikey=G4
hivel=127
lokey=F#4
lovel=64
offset=17178
pitch_keycenter=F#4
sample=Fender_Stratocaster_Scoop_FF_F#5.opus
volume=+6.90
</region>

<region>
hikey=A4
hivel=127
lokey=G#4
lovel=64
offset=16035
pitch_keycenter=G#4
sample=Fender_Stratocaster_Scoop_FF_G#5.opus
volume=+7.91
</region>

<region>
hikey=B4
hivel=127
lokey=A#4
lovel=64
offset=18168
pitch_keycenter=A#4
sample=Fender_Stratocaster_Scoop_FF_A#5.opus
volume=+9.40
</region>

<region>
hikey=C#5
hivel=127
lokey=C5
lovel=64
offset=17418
pitch_keycenter=C5
sample=Fender_Stratocaster_Scoop_FF_C6.opus
volume=+7.95
</region>

<region>
hikey=D#5
hivel=127
lokey=D5
lovel=64
offset=19219
pitch_keycenter=D5
sample=Fender_Stratocaster_Scoop_FF_D6.opus
volume=+14.42
</region>

<region>
hikey=F5
hivel=127
lokey=E5
lovel=64
offset=18076
pitch_keycenter=E5
sample=Fender_Stratocaster_Scoop_FF_E6.opus
volume=+10.89
</region>

<region>
end=180556
hikey=G5
hivel=127
lokey=F#5
lovel=64
offset=18185
pitch_keycenter=F#5
sample=Fender_Stratocaster_Scoop_FF_F#6.opus
volume=+13.53
</region>

<region>
hikey=A5
hivel=127
lokey=G#5
lovel=64
offset=18324
pitch_keycenter=G#5
sample=Fender_Stratocaster_Scoop_FF_G#6.opus
tune=+200 c
volume=+11.42
</region>

<region>
hikey=B5
hivel=127
lokey=A#5
lovel=64
offset=18831
pitch_keycenter=A#5
sample=Fender_Stratocaster_Scoop_FF_A#6.opus
tune=+200 c
volume=+11.34
</region>

<region>
hikey=C#6
hivel=127
lokey=C6
lovel=64
offset=18842
pitch_keycenter=C6
sample=Fender_Stratocaster_Scoop_FF_C7.opus
tune=+200 c
volume=+13.59
</region>
</group>